<?xml version="1.0" standalone="no"?>
<!DOCTYPE svg PUBLIC "-//W3C//DTD SVG 20010904//EN"
 "http://www.w3.org/TR/2001/REC-SVG-20010904/DTD/svg10.dtd">
<svg version="1.0" xmlns="http://www.w3.org/2000/svg"
 width="260.000000pt" height="260.000000pt" viewBox="0 0 260.000000 260.000000"
 preserveAspectRatio="xMidYMid meet">
<metadata>
Created by potrace 1.11, written by Peter Selinger 2001-2013
</metadata>
<g transform="translate(0.000000,260.000000) scale(0.100000,-0.100000)"
fill="#000000" stroke="none">
<path d="M1068 2518 c-22 -17 -34 -64 -53 -208 -3 -25 -8 -54 -10 -65 -2 -11
-4 -30 -4 -42 -1 -16 -11 -25 -38 -34 -21 -6 -54 -20 -75 -30 l-36 -19 -122
95 c-67 52 -130 95 -139 95 -32 0 -88 -44 -200 -158 -105 -108 -131 -143 -131
-176 0 -7 40 -64 90 -127 49 -62 90 -118 90 -125 0 -6 -13 -42 -28 -80 -31
-75 -30 -74 -142 -89 -25 -3 -54 -7 -65 -9 -11 -2 -44 -7 -74 -11 -91 -13 -91
-13 -91 -243 0 -232 1 -236 82 -247 29 -4 62 -9 73 -11 11 -2 43 -6 70 -9 116
-14 112 -12 149 -101 l32 -82 -87 -112 c-48 -62 -90 -121 -92 -131 -3 -11 8
-38 25 -63 39 -59 254 -265 284 -272 19 -5 49 13 151 89 l126 94 73 -30 73
-30 11 -71 c6 -39 13 -82 15 -96 5 -35 17 -111 21 -134 7 -36 34 -41 241 -42
175 -1 204 1 217 15 16 18 41 129 52 231 4 36 8 72 9 79 2 17 7 20 89 55 l59
26 36 -27 c20 -15 38 -30 41 -33 3 -3 21 -17 40 -30 19 -13 37 -27 40 -30 3
-3 24 -20 47 -39 35 -27 48 -31 74 -26 53 12 319 281 319 323 0 9 -40 68 -89
130 -49 61 -91 119 -95 127 -3 8 3 32 13 52 11 21 25 53 31 71 7 17 18 32 24
33 6 0 19 2 28 4 9 2 34 5 55 8 69 10 178 27 204 33 14 3 31 15 36 27 7 17 11
333 4 409 -1 21 -26 35 -72 43 -19 3 -45 7 -59 10 -14 3 -47 7 -75 11 -134 17
-124 11 -161 99 -39 92 -46 71 71 221 43 54 75 105 75 118 0 27 -45 82 -161
197 -105 104 -136 129 -161 129 -11 0 -74 -42 -141 -93 l-122 -93 -72 31 c-40
16 -74 32 -76 35 -3 3 -7 25 -10 50 -23 186 -38 256 -58 273 -19 15 -45 17
-218 17 -142 0 -202 -3 -213 -12z m352 -521 c44 -9 153 -51 182 -70 62 -42 67
-125 10 -166 -34 -23 -85 -21 -137 6 -22 11 -53 23 -70 27 -16 3 -41 9 -55 11
-30 7 -147 7 -175 1 -101 -21 -188 -63 -234 -115 -37 -41 -61 -101 -61 -158 0
-41 -4 -53 -19 -58 -10 -3 -46 -33 -81 -66 -45 -43 -65 -57 -71 -48 -15 25
-29 135 -25 204 17 302 363 505 736 432z m438 -531 c51 -50 98 -99 103 -109
13 -23 -6 -54 -75 -120 -28 -27 -50 -52 -49 -56 1 -3 11 -31 22 -62 27 -75 34
-131 34 -281 0 -145 -10 -178 -58 -208 -31 -19 -49 -20 -545 -20 -571 0 -563
-1 -595 67 -27 55 -17 343 14 433 40 117 113 214 211 280 56 38 166 86 210 92
14 2 30 6 35 9 12 8 231 4 264 -4 49 -13 126 -40 138 -49 9 -7 34 11 87 61 56
53 79 69 93 64 10 -4 60 -47 111 -97z"/>
<path d="M1239 1355 c-3 -2 -27 -7 -55 -10 -67 -6 -183 -66 -241 -123 -47 -47
-94 -127 -109 -187 -4 -16 -8 -86 -10 -155 l-3 -126 67 2 c37 1 72 3 77 3 7 1
11 46 12 119 2 125 4 144 28 213 34 95 121 196 208 240 20 11 37 22 37 24 0 6
-5 6 -11 0z"/>
</g>
</svg>
